<svg width="190" height="83" viewBox="0 0 190 83" fill="none" xmlns="http://www.w3.org/2000/svg">
<path d="M21.232 57C20.784 57 20.432 56.856 20.176 56.568C19.92 56.28 19.792 55.944 19.792 55.56V34.056C19.792 33.672 19.92 33.336 20.176 33.048C20.464 32.76 20.816 32.616 21.232 32.616C21.648 32.616 21.984 32.76 22.24 33.048C22.528 33.336 22.672 33.672 22.672 34.056V41.256L21.952 41.4C22.048 40.28 22.32 39.176 22.768 38.088C23.248 36.968 23.888 35.944 24.688 35.016C25.488 34.088 26.432 33.336 27.52 32.76C28.64 32.184 29.888 31.896 31.264 31.896C31.84 31.896 32.4 32.024 32.944 32.28C33.488 32.504 33.76 32.888 33.76 33.432C33.76 33.912 33.632 34.28 33.376 34.536C33.12 34.792 32.816 34.92 32.464 34.92C32.176 34.92 31.856 34.84 31.504 34.68C31.184 34.52 30.752 34.44 30.208 34.44C29.312 34.44 28.416 34.712 27.52 35.256C26.624 35.768 25.808 36.472 25.072 37.368C24.336 38.264 23.744 39.272 23.296 40.392C22.88 41.48 22.672 42.584 22.672 43.704V55.56C22.672 55.944 22.528 56.28 22.24 56.568C21.952 56.856 21.616 57 21.232 57ZM48.2706 57.48C45.8066 57.48 43.6306 56.952 41.7426 55.896C39.8546 54.84 38.3826 53.368 37.3266 51.48C36.2706 49.592 35.7426 47.384 35.7426 44.856C35.7426 42.136 36.2706 39.816 37.3266 37.896C38.4146 35.976 39.8066 34.504 41.5026 33.48C43.2306 32.424 45.0546 31.896 46.9746 31.896C48.3826 31.896 49.7426 32.152 51.0546 32.664C52.3986 33.144 53.5826 33.88 54.6066 34.872C55.6626 35.832 56.4946 37.016 57.1026 38.424C57.7426 39.832 58.0946 41.464 58.1586 43.32C58.1266 43.704 57.9666 44.04 57.6786 44.328C57.3906 44.584 57.0546 44.712 56.6706 44.712H37.4226L36.8466 42.12H55.7586L55.1346 42.696V41.736C55.0066 40.232 54.5266 38.952 53.6946 37.896C52.8626 36.84 51.8546 36.04 50.6706 35.496C49.4866 34.952 48.2546 34.68 46.9746 34.68C46.0146 34.68 45.0226 34.872 43.9986 35.256C43.0066 35.64 42.0946 36.248 41.2626 37.08C40.4626 37.88 39.8066 38.92 39.2946 40.2C38.7826 41.448 38.5266 42.936 38.5266 44.664C38.5266 46.552 38.9106 48.264 39.6786 49.8C40.4466 51.336 41.5506 52.552 42.9906 53.448C44.4626 54.344 46.2066 54.792 48.2226 54.792C49.3426 54.792 50.3506 54.632 51.2466 54.312C52.1426 53.992 52.9266 53.576 53.5986 53.064C54.2706 52.52 54.8306 51.96 55.2786 51.384C55.6306 51.096 55.9826 50.952 56.3346 50.952C56.6546 50.952 56.9266 51.08 57.1506 51.336C57.4066 51.592 57.5346 51.88 57.5346 52.2C57.5346 52.584 57.3746 52.92 57.0546 53.208C56.0946 54.36 54.8466 55.368 53.3106 56.232C51.7746 57.064 50.0946 57.48 48.2706 57.48ZM75.8913 31.896C78.0033 31.896 79.6833 32.328 80.9313 33.192C82.2113 34.024 83.1233 35.176 83.6673 36.648C84.2433 38.088 84.5312 39.688 84.5312 41.448V55.56C84.5312 55.944 84.3873 56.28 84.0993 56.568C83.8113 56.856 83.4753 57 83.0913 57C82.6433 57 82.2913 56.856 82.0353 56.568C81.7793 56.28 81.6513 55.944 81.6513 55.56V41.592C81.6513 40.312 81.4433 39.144 81.0273 38.088C80.6113 37.032 79.9233 36.184 78.9633 35.544C78.0353 34.904 76.8033 34.584 75.2673 34.584C73.8913 34.584 72.5793 34.904 71.3313 35.544C70.1153 36.184 69.1233 37.032 68.3553 38.088C67.5873 39.144 67.2033 40.312 67.2033 41.592V55.56C67.2033 55.944 67.0593 56.28 66.7713 56.568C66.4833 56.856 66.1473 57 65.7633 57C65.3153 57 64.9633 56.856 64.7073 56.568C64.4513 56.28 64.3233 55.944 64.3233 55.56V34.056C64.3233 33.672 64.4513 33.336 64.7073 33.048C64.9953 32.76 65.3473 32.616 65.7633 32.616C66.1793 32.616 66.5153 32.76 66.7713 33.048C67.0593 33.336 67.2033 33.672 67.2033 34.056V38.088L66.0993 39.816C66.1633 38.792 66.4833 37.816 67.0593 36.888C67.6673 35.928 68.4353 35.08 69.3633 34.344C70.2913 33.576 71.3153 32.984 72.4353 32.568C73.5873 32.12 74.7393 31.896 75.8913 31.896ZM90.4893 32.568H101.673C102.057 32.568 102.377 32.712 102.633 33C102.889 33.256 103.017 33.576 103.017 33.96C103.017 34.312 102.889 34.616 102.633 34.872C102.377 35.128 102.057 35.256 101.673 35.256H90.4893C90.1053 35.256 89.7693 35.128 89.4813 34.872C89.2253 34.584 89.0973 34.264 89.0973 33.912C89.0973 33.528 89.2253 33.208 89.4813 32.952C89.7693 32.696 90.1053 32.568 90.4893 32.568ZM95.4333 25.8C95.8493 25.8 96.1853 25.944 96.4413 26.232C96.7293 26.52 96.8733 26.856 96.8733 27.24V51.336C96.8733 52.232 96.9853 52.904 97.2093 53.352C97.4653 53.8 97.7853 54.104 98.1693 54.264C98.5533 54.392 98.9373 54.456 99.3213 54.456C99.5773 54.456 99.8013 54.424 99.9933 54.36C100.217 54.264 100.457 54.216 100.713 54.216C101.001 54.216 101.241 54.328 101.433 54.552C101.657 54.776 101.769 55.064 101.769 55.416C101.769 55.864 101.513 56.248 101.001 56.568C100.489 56.856 99.8813 57 99.1773 57C98.8893 57 98.4573 56.984 97.8813 56.952C97.3053 56.888 96.7133 56.712 96.1053 56.424C95.4973 56.104 94.9853 55.56 94.5693 54.792C94.1853 54.024 93.9933 52.92 93.9933 51.48V27.24C93.9933 26.856 94.1213 26.52 94.3773 26.232C94.6653 25.944 95.0173 25.8 95.4333 25.8ZM111.123 55.56C111.123 55.944 110.979 56.28 110.691 56.568C110.403 56.856 110.067 57 109.683 57C109.267 57 108.915 56.856 108.627 56.568C108.371 56.28 108.243 55.944 108.243 55.56V33.48C108.243 33.096 108.371 32.76 108.627 32.472C108.915 32.184 109.267 32.04 109.683 32.04C110.099 32.04 110.435 32.184 110.691 32.472C110.979 32.76 111.123 33.096 111.123 33.48V55.56ZM109.683 28.824C109.011 28.824 108.499 28.68 108.147 28.392C107.827 28.072 107.667 27.624 107.667 27.048V26.568C107.667 25.992 107.843 25.56 108.195 25.272C108.579 24.952 109.091 24.792 109.731 24.792C110.339 24.792 110.803 24.952 111.123 25.272C111.475 25.56 111.651 25.992 111.651 26.568V27.048C111.651 27.624 111.475 28.072 111.123 28.392C110.803 28.68 110.323 28.824 109.683 28.824ZM128.829 31.896C130.269 31.896 131.597 32.152 132.813 32.664C134.029 33.144 135.085 33.784 135.981 34.584C136.909 35.352 137.629 36.184 138.141 37.08C138.653 37.944 138.909 38.776 138.909 39.576L138.093 38.424V33.96C138.093 33.544 138.221 33.192 138.477 32.904C138.765 32.616 139.117 32.472 139.533 32.472C139.981 32.472 140.333 32.616 140.589 32.904C140.845 33.192 140.973 33.544 140.973 33.96V54.744C140.973 57.304 140.445 59.464 139.389 61.224C138.333 62.984 136.893 64.312 135.069 65.208C133.277 66.136 131.229 66.6 128.924 66.6C127.805 66.6 126.621 66.456 125.373 66.168C124.157 65.88 123.101 65.512 122.205 65.064C121.341 64.616 120.861 64.152 120.765 63.672C120.509 63.384 120.381 63.096 120.381 62.808C120.413 62.552 120.557 62.328 120.812 62.136C121.133 61.912 121.469 61.88 121.821 62.04C122.173 62.232 122.701 62.472 123.405 62.76C123.725 62.856 124.157 63 124.701 63.192C125.245 63.384 125.885 63.544 126.621 63.672C127.389 63.832 128.189 63.912 129.021 63.912C131.901 63.912 134.125 63.08 135.693 61.416C137.293 59.784 138.093 57.624 138.093 54.936V50.328L138.621 50.472C138.333 51.624 137.853 52.632 137.181 53.496C136.541 54.36 135.773 55.096 134.877 55.704C133.981 56.28 133.005 56.712 131.949 57C130.925 57.32 129.901 57.48 128.877 57.48C126.669 57.48 124.685 56.92 122.925 55.8C121.165 54.68 119.757 53.16 118.701 51.24C117.677 49.32 117.165 47.128 117.165 44.664C117.165 42.232 117.677 40.056 118.701 38.136C119.757 36.184 121.149 34.664 122.877 33.576C124.637 32.456 126.621 31.896 128.829 31.896ZM129.165 34.584C127.405 34.584 125.821 35.032 124.413 35.928C123.037 36.792 121.949 37.992 121.148 39.528C120.381 41.032 119.997 42.744 119.997 44.664C119.997 46.584 120.381 48.312 121.148 49.848C121.949 51.384 123.037 52.6 124.413 53.496C125.821 54.36 127.405 54.792 129.165 54.792C130.925 54.792 132.493 54.36 133.869 53.496C135.245 52.632 136.333 51.448 137.133 49.944C137.933 48.408 138.333 46.648 138.333 44.664C138.333 42.68 137.933 40.936 137.133 39.432C136.333 37.896 135.245 36.712 133.869 35.88C132.493 35.016 130.925 34.584 129.165 34.584ZM170.468 44.712C170.468 47.144 169.94 49.336 168.884 51.288C167.828 53.208 166.388 54.728 164.564 55.848C162.74 56.936 160.66 57.48 158.324 57.48C156.052 57.48 153.988 56.936 152.132 55.848C150.308 54.728 148.852 53.208 147.764 51.288C146.708 49.336 146.18 47.144 146.18 44.712C146.18 42.248 146.708 40.056 147.764 38.136C148.852 36.216 150.308 34.696 152.132 33.576C153.988 32.456 156.052 31.896 158.324 31.896C160.66 31.896 162.74 32.456 164.564 33.576C166.388 34.696 167.828 36.216 168.884 38.136C169.94 40.056 170.468 42.248 170.468 44.712ZM167.588 44.712C167.588 42.76 167.188 41.032 166.388 39.528C165.588 37.992 164.484 36.792 163.076 35.928C161.7 35.032 160.116 34.584 158.324 34.584C156.596 34.584 155.028 35.032 153.62 35.928C152.212 36.792 151.092 37.992 150.26 39.528C149.46 41.032 149.06 42.76 149.06 44.712C149.06 46.664 149.46 48.392 150.26 49.896C151.092 51.4 152.212 52.6 153.62 53.496C155.028 54.36 156.596 54.792 158.324 54.792C160.116 54.792 161.7 54.36 163.076 53.496C164.484 52.6 165.588 51.4 166.388 49.896C167.188 48.392 167.588 46.664 167.588 44.712Z" fill="white"/>
</svg>
